<?xml version="1.0" encoding="UTF-8"?>
<svg id="_Слой_1" data-name="Слой_1" xmlns="http://www.w3.org/2000/svg" viewBox="0 0 800 800">
  <defs>
    <style>
      .cls-1 {
        stroke-width: 4px;
      }

      .cls-1, .cls-2, .cls-3 {
        stroke: #ed1c24;
        stroke-miterlimit: 10;
      }

      .cls-1, .cls-2, .cls-4 {
        fill: #ed1c24;
      }

      .cls-3 {
        fill: none;
        stroke-width: 13px;
      }
    </style>
  </defs>
  <polygon class="cls-4" points="315.58 681.58 290.13 665.19 320.1 669.39 315.58 681.58"/>
  <polygon class="cls-4" points="314.88 651.78 278.87 633.58 318.8 639.38 314.88 651.78"/>
  <polygon class="cls-4" points="317.61 623.25 272.53 605.51 320.71 610.62 317.61 623.25"/>
  <path class="cls-3" d="M647.48,304.84c-.95.24-1.92.53-2.9.87-38.33,13.38-76.16,42.81-109.67,82.75-81.56,97.21-137.44,256.66-112.01,398.15,118.45-28.26,289,33.42,317.42-28.64,33.29-147.74-3.32-330.23-22.35-365.1-25.41-46.56-37.94-55.78-70.49-88.03Z"/>
  <path class="cls-3" d="M534.5,376.61c-.22-.23-.45-.46-.67-.69-8.43-8.72-16.48-19.79-21.77-35.65-2.2-6.61-.31-13.82,4.77-18.8,27.25-26.66,66.32-47.92,102.34-62.1,7.97-3.13,14.28-2.82,15.06,5.31.79,8.15,2.52,23.41,7.04,35.62.2.55.41,1.09.62,1.63"/>
  <path class="cls-3" d="M519.74,366.4c-9.46,4.94-21.27,15.24-28.18,24.27-2.91,3.79-4.47,8.47-4.46,13.25.01,7.92,1.82,15.11,2.46,17.03,5.07,15.32-38.9,63.61-60.66,187.7"/>
  <path class="cls-3" d="M488.91,395.15c-7.63-11.04-17.71-31.15-12.59-40.66,4.94-9.19,19.57-11.96,15.61-19.87-5.03-10.06-10.71-23.61-17.68-24.13-8.76-.65-39.53,15.01-53.71,1.42-8.35-8,0-18.58-2.8-26.71-1.59-4.63-8.38-3.36-9.29-7.23-1.02-4.34,1.8-7.47.26-10.58-1.35-2.73-3.4-1.2-5.94-3.87-4.47-4.71,4.25-15.41.52-20.65-4.06-5.7-17.89,2.08-21.68-2.58-6.63-8.17,28.93-40.65,20.13-56.26-3.22-5.7-9.6-4.27-12.9-11.35-4.74-10.17,6.01-18.3,3.61-26.84-22.45-1.81-70.27-11.13-71.35-20-.3-2.48,12.2-17.4,29.13-23.1"/>
  <path class="cls-3" d="M611.94,263.52c-12.19-22.32-14.58-37.07-10.84-41.68,2.79-3.44,5.25-6.14,6.77-11.23,1.74-5.81,2.55-11.03,5.23-15.1,5.35-8.13,7.8-21.35,6.38-38.06"/>
  <path class="cls-2" d="M619.47,163.1c-30.16-1.35-81.27-32.23-133.6-40.48-24.81-1.07-26.21,1.32-59.16-.45-35.09-2.15-71.86.82-92.84-15.86-5.92-4.71-5.8-13.71.3-18.18,31.75-23.22,112.2-70.59,174.6-73.86,69.58-3.64,95.67,23.39,118.1,44.98,5.68,5.47,9.56,12.51,11.26,20.21,6.13,27.8,4.83,56.61-4.24,75.08-2.68,5.45-8.34,8.84-14.41,8.57Z"/>
  <path class="cls-3" d="M477.44,376.61c-20.22,34.13-41.3,81.09-57.55,140.04-11.91,43.22-16.35,70.8-18.48,103.06"/>
  <line class="cls-3" x1="446.58" y1="149.45" x2="392.45" y2="145.84"/>
  <g>
    <path class="cls-1" d="M69,409.63c-13.11-8.53-32.89-27.31-40.71-21.83-1.11.77-5.12,3.27-3.56,8.56.89,5.32,22.85,18.96,44.27,13.27Z"/>
    <path class="cls-1" d="M393.63,712.13c-1.3-.12-2.64-.16-4.02-.1-53.83,2.61-84.79-15.03-96-29.81-8.52-11.23,5.37-12.3-3.48-17.03-22.45-12-9.22-29.18-10.06-29.42-10.84-3.1-18.58-17.42-8.9-28.65-16.52-2.45-18.49-12.34-16.26-16.26,6.45-11.36,45.92-11.44,82.66-1.71-28.87-81.96-41.5-154.08-93.1-243.8-4.2-7.3-13.25-10.25-20.96-6.88-74.66,32.67-125.34,62.93-151.17,73.16-.52-.28-1.05-.6-1.6-.93-3.09,2.42-5.4,4.22-8.08,5.35-21.74,9.13-26.47-1.11-33.68-11.48-1.2-1.73-2.94-5.17-3.83-7.08.07.16.12.32.2.49,47.82,102.34,142.27,253.9,198.68,348.5,1.78,2.98,5.31,4.4,8.66,3.5,52.5-14.12,66.75-19.89,177.71-10.09-5.98-9.47-11.55-18.72-16.76-27.77ZM272.42,687.3c1.85,0,3.35,1.5,3.35,3.35v4.68c0,1.85-1.5,3.35-3.35,3.35h-36.55c-1.85,0-3.35-1.5-3.35-3.35v-4.68c0-1.85,1.5-3.35,3.35-3.35h36.55ZM286.08,578.02l-55.34,8.8c-1.83.29-3.55-.96-3.84-2.78l-1.11-6.97c-.29-1.83.96-3.55,2.78-3.84l55.34-8.8c1.83-.29,3.55.96,3.84,2.78l1.11,6.97c.29,1.83-.96,3.55-2.78,3.84ZM206.42,568.46c-6.52.81-12.83-2.64-15.67-8.57-7.1-14.8-16.02-34.39-24.24-53.33-2.73-6.29.14-13.62,6.42-16.37,21.03-9.23,38.81-15.32,57.87-19,2.75-.53,5.57.67,7.04,3.06,13.53,21.98,24.9,45.57,35.87,69.63.15.33.29.67.38,1.02,1.01,4.01-1.26,8.17-5.25,9.48-19.13,6.29-42.76,11.63-62.43,14.08ZM237.77,371.06c22.45,39.1,46.06,93.78,73.94,182.71.44,1.4-9.63,11-11.23,3.87-18.58-82.84-45.68-138.19-73.94-180.77-1.3-1.96,8.36-10.79,11.23-5.81ZM230.3,441.57c.64,1.74,2.88,8.72,1.15,9.37l-119.31,37.97c-1.74.64-3.66-.24-4.31-1.98h0c-.64-1.74.24-3.66,1.98-4.31l116.18-43.03c1.74-.64,3.66.24,4.31,1.98ZM86.77,473.19c-5.44-7.1-7.68-12.75-13.97-21.83-2.09-3.02.11-6.53,4.92-7.85,16.12-4.42,103.61-50.65,118.21-52.41,2.11-.25,4.27.32,5.4,1.47,10.37,10.54,22.53,35.91,22.6,36.08.77,1.92-1.08,3.49-4.02,4.55-14.43,5.16-106.05,42.93-121.12,44.11-5,.39-9.83-1.27-12.01-4.11ZM104.84,518.29l-1.8-6.07c-.53-1.77.49-3.64,2.26-4.16l36.02-10.66c1.77-.53,3.64.49,4.16,2.26l1.8,6.07c.53,1.77-.49,3.64-2.26,4.16l-36.02,10.66c-1.77.53-3.64-.49-4.16-2.26ZM117.46,539.15l-1.07-3.62c-.53-1.77.49-3.64,2.26-4.16l36.02-10.66c1.77-.53,3.64.49,4.16,2.26l1.07,3.62c.53,1.77-.49,3.64-2.26,4.16l-36.02,10.66c-1.77.53-3.64-.49-4.16-2.26ZM130.71,564.94l-.73-2.47c-.53-1.77.49-3.64,2.26-4.16l36.02-10.66c1.77-.53,3.64.49,4.16,2.26l.73,2.47c.53,1.77-.49,3.64-2.26,4.16l-36.02,10.66c-1.77.53-3.64-.49-4.16-2.26ZM142.32,588.38l-2.17-7.35c-.53-1.77.49-3.64,2.26-4.16l36.02-10.66c1.77-.53,3.64.49,4.16,2.26l2.17,7.35c.53,1.77-.49,3.64-2.26,4.16l-36.02,10.66c-1.77.53-3.64-.49-4.16-2.26ZM155.26,603.12l-.34-2.13c-.29-1.83.96-3.55,2.78-3.84l55.34-8.8c1.83-.29,3.55.96,3.84,2.78l.34,2.13c.29,1.83-.96,3.55-2.78,3.84l-55.34,8.8c-1.83.29-3.55-.96-3.84-2.78ZM170.04,623.21l-.6-3.75c-.29-1.83.96-3.55,2.78-3.84l55.34-8.8c1.83-.29,3.55.96,3.84,2.78l.6,3.75c.29,1.83-.96,3.55-2.78,3.84l-55.34,8.8c-1.83.29-3.55-.96-3.84-2.78ZM177.57,642.53l-.46-2.92c-.29-1.83.96-3.55,2.78-3.84l55.34-8.8c1.83-.29,3.55.96,3.84,2.78l.46,2.92c.29,1.83-.96,3.55-2.78,3.84l-55.34,8.8c-1.83.29-3.55-.96-3.84-2.78ZM191.05,660.8l-.42-2.62c-.29-1.83.96-3.55,2.78-3.84l55.34-8.8c1.83-.29,3.55.96,3.84,2.78l.42,2.62c.29,1.83-.96,3.55-2.78,3.84l-55.34,8.8c-1.83.29-3.55-.96-3.84-2.78ZM202.79,682.12l-.54-3.42c-.29-1.83.96-3.55,2.78-3.84l55.34-8.8c1.83-.29,3.55.96,3.84,2.78l.54,3.42c.29,1.83-.96,3.55-2.78,3.84l-55.34,8.8c-1.83.29-3.55-.96-3.84-2.78ZM282.6,711.12l-55.9,3.94c-1.85.13-3.45-1.26-3.58-3.11l-.27-3.85c-.13-1.85,1.26-3.45,3.11-3.58l55.9-3.94c1.85-.13,3.45,1.26,3.58,3.11l.27,3.85c.13,1.85-1.26,3.45-3.11,3.58Z"/>
  </g>
  <path class="cls-3" d="M439.42,642.11c-32-13.42-46.6-29.13-74.68-42.14-5.57-2.58-28.11-21.19-33.74-21.55"/>
  <path class="cls-3" d="M419.97,723.32c-10.15-7.57-15.9-1.8-26-5.63-4.47-1.03-7.4,4.28-11.87,3.24"/>
  <path class="cls-1" d="M728.71,762.48c-37.16,21.68-27.64,17.11-161.81,16.39-54.19-2.32-85.4-7.28-143.23-27.87-9.04-22.45-12.59-81.73.06-116.29,30.7-8.02,180.12,38.76,184.2,29.58,1.14-2.56-7.35-7.76-6.97-17.81.29-7.77,6.97-12.76,6.97-14.71,0-19.35-24.77-65.03-20.9-150.97,5.42-51.1,24-112.26,72.77-116.9,44.89-4.28,64.43,10.6,85.33,129.83,5.8,33.08,11.24,42.21,8.35,124.24-4.12,116.78-5.9,125.22-24.77,144.52Z"/>
</svg>