<?xml version="1.0" encoding="UTF-8"?>
<svg id="_Слой_1" data-name="Слой_1" xmlns="http://www.w3.org/2000/svg" viewBox="0 0 800 800">
  <defs>
    <style>
      .cls-1 {
        fill: none;
        stroke: #662d91;
        stroke-miterlimit: 10;
        stroke-width: 5px;
      }

      .cls-2 {
        fill: #662d91;
      }
    </style>
  </defs>
  <path class="cls-2" d="M675.48,586.97c-5.67-30.55-10.59-47.91-21-71-26.39-58.52-60.26-84.23-90.26-113.23-.48-.47-.95-1.02-1.4-1.65l-.4.3c-66.14,26.58-138.43,74.92-140.9,99.97-.78,7.9,1.67,12.93,6.7,18.42-140.13,92.19-195.87,260.58-206.71,288.84l453.97-1.65c16.37-100.01,8.34-175.04,0-220ZM334.03,650.16c7.23-16.52,26.58-51.61,41.55-49.53,10.58,2.58,8.22,23.02,18.58,24.76,8.13,1.36,8-6.97,16-6.71,8.21.26,11.1,16.77,12.39,27.35-10.32,4.65-60.65,2.84-88.52,4.13Z"/>
  <g>
    <path class="cls-1" d="M675.48,806.97c16.37-100.01,8.34-175.04,0-220-5.67-30.55-10.59-47.91-21-71-26.39-58.52-60.26-84.23-90.26-113.23-.48-.47-.95-1.02-1.4-1.65-10.25-14.13-14.84-67.76-24.34-63.12-45,22-142.19,60-184.19,96-1.98,11.15-3.87,31.94-2.33,41.81.96,6.11,19.03-15.05,47.42-32.52,7.55-4.64,13.22-6.84,14.13-5.79-17.42,19.85-46.74,55.26-72,82.95-103.93,128.94-130.06,258.97-126.97,239.23,3.88-85.94,69.68-219.49,98.33-245.81"/>
    <path class="cls-1" d="M221.51,808.62c10.84-28.26,66.58-196.65,206.71-288.84-5.03-5.49-7.48-10.52-6.7-18.42,2.47-25.05,74.76-73.39,140.9-99.97"/>
  </g>
  <g>
    <path class="cls-2" d="M519.96,108.49c21.68,14.96,9.69,99.01,9.55,102.96l-.22,1.99c-171.74-18.64-355.29,48.51-351.82,46.01,39.91-28.64,61.56-32.8,79.37-41.83,6.53-13.69,15.19-88.66,31.76-128.79,5.91-14.3,20.99-16.62,36.27-19.05,48.51-7.75,135.22,14.96,195.09,38.71Z"/>
    <path class="cls-1" d="M520.22,341.52c-2.18-4.09-4.91-10.55-5.16-18.58-.48-15.69,9.03-21.99,10.84-39.74,1.43-14.01-3.84-16.42-2.07-24.26,73.3-11.62,74.44-32.73,73.3-33.03-22.09-5.94-44.86-9.97-67.84-12.47-171.74-18.64-355.29,48.51-351.82,46.01,39.91-28.64,61.56-32.8,79.37-41.83,6.53-13.69,15.19-88.66,31.76-128.79,5.91-14.3,20.99-16.62,36.27-19.05,48.51-7.75,135.22,14.96,195.09,38.71,21.68,14.96,9.69,99.01,9.55,102.96"/>
  </g>
  <path class="cls-1" d="M268.99,162.96c101.26-8.72,175.62,10.04,253.04,28.1,3.18.74,6.18,2.1,9.24,3.19"/>
  <g>
    <g>
      <path class="cls-2" d="M267,360.1c3.86,5.82,12.75,7.3,12.71,11.35-.04,4.04-10.36,4.72-11.36,10.33l-100.82,40.08c3.04-1.6,5.21-5.8,5.21-10.73,0-6.31-3.55-11.42-7.94-11.42l102-39.48.2-.13Z"/>
      <path class="cls-2" d="M167.49,421.88c-.84.43-1.74.67-2.69.67-4.38,0-7.93-5.11-7.93-11.42s3.55-11.42,7.93-11.42,7.94,5.11,7.94,11.42c0,4.93-2.17,9.13-5.21,10.73l-.04.02Z"/>
    </g>
    <g>
      <path class="cls-1" d="M347.32,481.39c-9.81,14.45-25.37,40.19-26.32,32-2.58-22.19-8.58-36.13-2.84-46.97,2.32-4.39,9.03.26,15.22-6.71,6.35-7.14,12.31-23.9-.25-26.84-19.88-4.64-29.94,1.81-47.75-2.84-1.46-.38-12.02-1.7-12.9-10.83-.76-7.87,3.18-11.89,4.39-20.86,1.06-7.78-9.45-11.36-8.52-16.56,1-5.61,11.32-6.29,11.36-10.33.04-4.05-8.85-5.53-12.71-11.35-.38-.56-.7-1.16-.97-1.81-3.67-8.9,6.32-20.19,3.1-24.26-3.11-3.9-15.23,4.13-22.46,1.81-6.52-2.1-8.25-6.97-5.67-14.45,5.64-16.35,13.93-24.77,27.35-48.77,1.28-2.3,1.66-9.8-1.55-12.91-4.01-3.88-7.48-.51-10.84-5.93-1.28-2.07-1.8-6.15,4.65-17.04"/>
      <path class="cls-1" d="M167.49,421.88c-.84.43-1.74.67-2.69.67-4.38,0-7.93-5.11-7.93-11.42s3.55-11.42,7.93-11.42,7.94,5.11,7.94,11.42c0,4.93-2.17,9.13-5.21,10.73"/>
      <line class="cls-1" x1="266.8" y1="360.23" x2="164.8" y2="399.71"/>
      <polyline class="cls-1" points="268.35 381.78 167.53 421.86 167.49 421.88 167.39 421.92"/>
    </g>
  </g>
  <path class="cls-1" d="M150.16,392.1c-6.57-4.11-15.34-10.95-15.48-19.61-.25-15.43,27.84-21.87,26.32-33.03-4.13-30.45-97.03-29.94-69.16-77.42,12.13-20.66,36.12-18.51,43.87-37.16,2.89-6.95,3.32-16.37-2.06-29.42"/>
</svg>