<?xml version="1.0" encoding="UTF-8"?>
<svg id="_Слой_1" data-name="Слой_1" xmlns="http://www.w3.org/2000/svg" viewBox="0 0 800 800">
  <defs>
    <style>
      .cls-1 {
        fill: #ed1c24;
        stroke: #ed1c24;
        stroke-width: 5px;
      }

      .cls-1, .cls-2, .cls-3 {
        stroke-miterlimit: 10;
      }

      .cls-2 {
        fill: #662d91;
        stroke-width: 3px;
      }

      .cls-2, .cls-3 {
        stroke: #662d91;
      }

      .cls-3 {
        fill: none;
        stroke-width: 11px;
      }
    </style>
  </defs>
  <path class="cls-2" d="M551.63,800c-7.62-178.57-125.68-286.74-181.42-340.29,3.59-4.49,8.06-15.42,14.71-25.42-3.55-7.71-23.56-4.07-40-5.94-11.68-26.33-65.07-79.42-89.48-82.32-31.35,25.94-106.65,101.81-100.19,453.97q171.87,0,396.39,0Z"/>
  <path class="cls-2" d="M611.72,688.48c-36-37.68-36-45.42-70.45-88.26-14.71,13.03-18.97,17.29-25.55,21.68,12,48.46,24.02,73.42,31.74,128.52,27.87-28.77,27.87-28,64.26-61.94Z"/>
  <path class="cls-2" d="M361.12,181.39c166.43,22.93,203.47,47.13,222.73,45.49,1.74-.15,2.73-2.13,1.77-3.59-8.7-13.13-41.55-27.61-65.79-37.19-68.65-5.94-83.1-2.06-158.71-4.71Z"/>
  <path class="cls-2" d="M510.6,149.65c-3.82-31.51-14.44-63.16-26.18-79.73-5.09-7.19-13.69-11.1-22.47-10.31-5.81.52-14.35,2.03-30.32,4.11-29.33,3.82-32.47.03-63.48,2.32-38.54,2.84-56.05,7.9-74.08,16.48-7.22,3.44-12.52,9.98-14.21,17.8-3.9,18.05-1.57,34.94-5.39,57.07,78.77-10.65,147.55-17.23,236.13-7.74Z"/>
  <path class="cls-1" d="M431.83,405.65c4.5-.39,21.16,29.03,17.94,42.71,10.84,14.58,27.29,67.34,30.06,86.31-5.23-10.6-25.9-50.94-45.61-82.65-1.38-1.85-10.83-10.38-13.55-19.87,4.97-12,5.7-26.03,11.16-26.5Z"/>
  <path class="cls-3" d="M515.67,184.87c.84-6.61-.54-20.28-3.13-32.46-.53-2.51-2.33-4.55-4.74-5.42-1.11-.4-2.12-.8-2.51-1.21"/>
  <path class="cls-3" d="M256.26,350.03c7.35-24.77,1.26-33.9,4.73-56,47.23,2.71,132.77,74.32,146.19,125.68,41.99,54.35,99.06,146.34,129.84,287.83"/>
  <path class="cls-3" d="M271.18,177.24c-.28-5.03,0-8.56.49-14.95.13-1.69,6.75-9.34,8.27-10.39"/>
  <path class="cls-3" d="M427.17,187.39c-116.07-11.2-208.08-10.73-207.08-2.66,2.32,18.8,29.22,24.8,56.26,31.48,1.03,33.81,11,44.82,15.57,54.97-.17,11.69-3.67,22.81-5.74,29.1"/>
  <path class="cls-3" d="M431.55,407c-1.29-10.19-14.97-14.47-12.11-23.44,6.39-20,14.57-14.91,23.87-12.74,18.29,4.26,38.03,8.5,43.55-3.97,4.45-10.06-.39-15.1.9-23.35.93-5.98,10.44-4.55,11.1-9.03.55-3.76-3.1-7.41-2.32-9.03.84-1.74,4.19-.2,6.63-3.22,3.92-4.85-2.62-15.06.34-20.27,3.81-6.69,21.36,1.49,25.81-4.39,7.32-9.66-28.05-48.63-19.03-61.74,3.16-4.6,8.21-.21,11.03-6.65,2.26-5.17-3.33-12.75-2.55-18.17"/>
  <path class="cls-2" d="M536.45,525.9c.25,1.21,5.13,1.46,10.32,4.11.26.13,7.14,4.13,8.52,10.07,1.94,8.29-7.61,14.65-5.04,21.09,1.05,2.62,4.09,1.7,7.1,1.89,7.67.48,9.65-15.22,22.94-28.53,1.46-1.46,3.22-2.59,5.13-3.37,8.56-3.53,15.36-6,20.71-8.07,5.21-2.03,11.18-1.03,15.34,2.71,2.45,2.2,3.96,4.48,5.71,6.25,2.54,2.58,6.56,2.99,9.65,1.09,6.98-4.3,12.4-9.67,18.49-16.85,3.54-4.17,5.66-9.41,5.74-14.88.03-2.2-.12-4.28-.32-6.21-.18-1.65-.84-4.25-1.5-5.76-2.99-6.77-7.8-8.3-7.96-14.54,21.29-23.23,28.74-30.65,52.4-56.63.17-3.89-7.37-13.43-22.45-32.52-1.93-2.44-4.13-2.4-8.32-2.26-3.44.12-7.94-1-8.71,2.26-.83,3.52,3.13,6.97,2.32,7.74-51.1,48.98-62.9,56.53-114.39,106.47-1.02.98-7.5-2.42-10.06,1.74-1.86,3.02-.78,7.48-.19,8.69,2.32,4.8,1.41,5.67,1.16,7.95-.48,4.38-6.92,5.91-6.58,7.53ZM617,508.77c5.6-8.15,12.68-15.14,19.5-19.46,2.35-1.49,5.29-1.85,7.85-.76,5,2.12,9.09,7.57,8.86,12.48-.68,14.03-8.44,17.87-16.96,24.16-4.84,3.58-12.02-1.09-17.58-6.54-2.63-2.58-3.76-6.85-1.67-9.89Z"/>
  <path class="cls-2" d="M619.24,505.68c4.84,6.19,14.13,4.87,18.39,4.06-1.65,9.19-20.06,5.46-22.16,1.16-.96-1.96,1.37-3.63,3.77-5.23Z"/>
  <path class="cls-3" d="M552.02,621.64c-2.2-11.54-1.32-22.02.61-42.55.77-8.26,4.81-17.39,6.27-19.61"/>
  <path class="cls-3" d="M593.29,667.66c3.73-3.95,9.41-13.53,14.43-15.18,10.23-3.35,18.14-8.25,20.65-11.87,11.97-17.29,33.43-27.66,38.97-44.39,6.39-19.28-8.71-14.74-14.12-14.96,20.94-20.16,2.64-25.19-6.72-23.35,14.58-21.87,1.1-28.77-14.97-24.13"/>
</svg>