<?xml version="1.0" encoding="UTF-8"?>
<svg id="_Слой_1" data-name="Слой_1" xmlns="http://www.w3.org/2000/svg" viewBox="0 0 800 800">
  <defs>
    <style>
      .cls-1 {
        fill: none;
      }

      .cls-1, .cls-2 {
        stroke: #ff0;
        stroke-miterlimit: 10;
        stroke-width: 12px;
      }

      .cls-2 {
        fill: #ff0;
      }
    </style>
  </defs>
  <path class="cls-2" d="M217.19,800c11.48-81.03,73.42-242.58,126.19-314.06-4.77-11.61-6.84-21.94-10.84-35.61-15.1,13.16-42.45,34.32-61.16,53.42,9.42,14.97,13.55,21.68,22.45,34.84-11.82,10.06-23.47,18.25-29.99,20.45-18.45,34.06-37.76,165.1-46.66,240.97Z"/>
  <path class="cls-2" d="M255.98,144.16c15.11-47.95,20.33-92.16,45.6-117.32,24.97-10.77,40.72,21.09,99.87,20.13,30.34-.5,38.37-9.08,67.35-4.65,12.07,1.85,33.54,5.13,50.72,17.93,7.7,5.74,12.8,14.28,14.5,23.73,5.09,28.29-2.03,56.01,2.34,82.45.24,1.47,1.18,2.74,2.5,3.46,13.69,7.45,22.22,11.14,57.69,32.68,16.09,9.77,49.49,37.52,45.55,48.77-6.46,18.47-112.55-22.08-266.19-33.29-124.39-9.07-232.39,15.78-257.16,3.68-4.04-1.97-5.31-7.17-2.77-10.87,23.71-34.46,92.25-40.14,126.17-52.3,6.61-2.37,11.71-7.71,13.82-14.41Z"/>
  <path class="cls-2" d="M556.34,434.84c-14.48-9.1-22.86-25.43-21.79-42.5.38-6.08,1.46-10.9,1.17-20.65-.12-3.91-3.96-6.61-7.68-5.41-73.65,23.89-111.86,46.94-158.47,80.16-1.42,1.02-2.21,2.72-2.07,4.46,1.68,21.94,10.8,36.7,16.69,52.38.71,1.89.38,4.05-.98,5.54-19.91,8.03-19.82,3.18-46.14,17.63-3.61,21.16-68.65,152.26-91.23,273.55,182.58.49,244.52.49,471.48,0,4.06-105.74-44.02-291.62-160.98-365.16ZM503.22,722.26l-47.97-5.95-23.16,40.03-21.83-44.99-46.97,4.96,27.13-43.67-27.13-47.3,51.15,5.95,22.62-48.96,20.84,48.96h49.95l-27.79,46.64,23.16,44.33Z"/>
  <path class="cls-1" d="M332.55,450.32c-2-12.06-4.45-27.55-35.47-21.29-16.27,3.28-35.28,4.44-42.33-4.13-6.61-7.28-4.97-14.99-2.31-24.51,1.87-6.69-.24-13.89-5.47-18.46-3.44-3.01-6.26-5.78-5.89-8.39.75-5.29,7.55-6.97,10.32-10.32-3.29-2.65-8.21-1.32-11.35-5.68-4.56-6.31,6.59-16.45,3.1-24.26-4.07-9.12-20.76,3.39-24.77-4.19-6.2-11.71,14.1-41.81,26.46-64.5,1.79-3.29,1.54-7.37-.79-10.3-2.92-3.68-6.51-6.77-7.61-13.91-1.34-8.72,2.11-16.52,5.16-21.68"/>
  <path class="cls-1" d="M530.1,240.9c4.62,29.32-3.49,46.08-10.88,53.78-2.59,2.7-3.76,6.44-3.48,10.17,1.16,15.69-2.78,31.18-11.24,40.44-3.25,3.56-5.1,8.19-5.14,13.01-.06,6.41.54,11.53.81,15.75"/>
  <circle class="cls-2" cx="435.57" cy="669.33" r="26.84"/>
</svg>